#!OML:ASF I:\salsa\salsa 7_09\Patient 1\Session 1\dancerfemale.ASF
:FULLY-SPECIFIED
:DEGREES
1160
root -5.56012 16.0097 3.27333 -696.518 -1017.62 381.471
lowerback 6.8254 4.56473 -5.62508
upperback -2.7847 5.35268 -5.18709
thorax -6.77796 2.79541 -3.00269
lowerneck 1.7113 -1.91958 -6.71754
upperneck 27.0314 -2.13385 4.00721
head 8.20553 -0.936286 2.42987
rclavicle -3.20665e-014 6.55989e-014
rhumerus -50.044 4.32719 -99.5593
rradius 80.4106
rwrist -16.7715
rhand -6.02272 57.7187
rfingers 7.12502
rthumb 19.8105 28.7083
lclavicle -3.20665e-014 6.55989e-014
lhumerus 6.48868 30.4363 35.2773
lradius 81.2152
lwrist 21.7993
lhand 5.01352 58.4786
lfingers 7.12502
lthumb 30.3829 1166
rfemur -35.6401 6.91672 9.21795
rtibia 46.5435
rfoot -18.9901 -9.65833
rtoes -27.7056
lfemur -16.8764 -0.910344 -32.4096
ltibia 30.7903
lfoot -19.8782 -2.60909
ltoes -19.0167
1161
root -5.4539 16.023 3.37529 -696.627 -1016.67 381.445
lowerback 6.88308 4.44873 -5.60867
upperback -2.72247 5.20473 -4.9339
thorax -6.76652 2.72361 -2.72586
lowerneck 1.88555 -1.85507 -6.86973
upperneck 26.9404 -2.08719 4.23142
head 8.1433 -0.907047 2.53519
rclavicle -4.83792e-014 6.08281e-014
rhumerus -50.3482 4.62179 -99.3312
rradius 80.4412
rwrist -16.6576
rhand -5.77725 57.5831
rfingers 7.12502
rthumb 20.0465 28.5972
lclavicle -4.83792e-014 6.08281e-014
lhumerus 5.68799 31.1435 34.8635
lradius 80.7771
lwrist 21.2343
lhand 4.69581 57.8277
lfingers 7.12502
lthumb 30.0798 1165.4
rfemur -34.9172 7.74687 9.18655
rtibia 42.6091
rfoot -19.3843 -6.94236
rtoes -30.4974
lfemur -15.9599 -2.06214 -31.9028
ltibia 30.4976
lfoot -20.1232 -2.13785
ltoes -19.4847
1162
root -5.34182 16.0421 3.4819 -697.215 -1015.63 381.111
lowerback 7.02124 4.32384 -5.45989
upperback -2.54455 5.05909 -4.59796
thorax -6.67152 2.64628 -2.4334
lowerneck 1.7462 -1.82676 -7.0331
upperneck 27.0573 -2.04821 4.35232
head 8.20902 -0.8899 2.6091
rclavicle 9.53545e-015 0
rhumerus -50.4324 5.18333 -99.185
rradius 80.2217
rwrist -16.3344
rhand -6.76017 57.6177
rfingers 7.12502
rthumb 19.1015 28.5357
lclavicle 9.53545e-015 0
lhumerus 5.04642 31.9555 34.6409
lradius 80.1942
lwrist 20.5203
lhand 4.896 57.2483
lfingers 7.12502
lthumb 30.2708 1164.79
rfemur -33.8922 8.08908 9.57927
rtibia 39.2998
rfoot -18.9807 -4.77324
rtoes -33.5929
lfemur -14.8583 -3.03154 -31.2495
ltibia 30.2941
lfoot -20.3973 -1.82287
ltoes -19.8554
1163
root -5.22312 16.0626 3.59389 -698.336 -1014.49 380.295
lowerback 7.16437 4.21318 -5.05523
upperback -2.38797 4.95648 -4.23561
thorax -6.58081 2.5802 -2.26142
lowerneck 1.70686 -1.83773 -7.23236
upperneck 27.1603 -2.08777 4.57331
head 8.25804 -0.904397 2.71887
rclavicle 4.59503e-014 -2.68359e-014
rhumerus -50.5398 5.54055 -98.9412
rradius 80.0885
rwrist -16.2485
rhand -7.30509 57.7165
rfingers 7.12502
rthumb 18.5774 28.5836
lclavicle 4.59503e-014 -2.68359e-014
lhumerus 4.32095 32.5824 34.3434
lradius 79.6867
lwrist 19.8554
lhand 5.14618 56.8271
lfingers 7.12502
lthumb 30.5094 1164.32
rfemur -32.8123 7.82089 10.4824
rtibia 36.6754
rfoot -18.1509 -3.56408
rtoes -36.0591
lfemur -13.7212 -3.96383 -30.3668
ltibia 30.2418
lfoot -20.7794 -1.59958
ltoes -20.0545
1164
root -5.09626 16.0637 3.71086 -699.736 -1013.33 379.147
lowerback 7.13522 4.12422 -4.50761
upperback -2.29584 4.90752 -3.88007
thorax -6.44749 2.53635 -2.17256
lowerneck 1.94144 -1.87699 -7.42639
upperneck 27.1468 -2.1979 4.8696
head 8.22307 -0.945727 2.84815
rclavicle -3.53433e-014 0
rhumerus -50.7294 5.64214 -98.6326
rradius 80.0979
rwrist -16.2446
rhand -7.4334 57.6066
rfingers 7.12502
rthumb 18.4539 28.462
lclavicle -3.53433e-014 0
lhumerus 3.5823 32.7945 33.6804
lradius 78.9514
lwrist 19.6185
lhand 5.15337 56.3493
lfingers 7.12502
lthumb 30.5163 1163.84
rfemur -31.2692 6.92029 11.77
rtibia 34.7927
rfoot -18.0356 -2.11907
rtoes -36.9336
lfemur -12.7599 -5.05731 -29.3958
ltibia 30.4609
lfoot -21.2946 -1.22006
ltoes -20.6725
1165
root -4.95978 16.0568 3.83034 -701.199 -1012.27 377.912
lowerback 6.93465 4.10876 -3.99516
upperback -2.21818 4.96264 -3.5597
thorax -6.2325 2.54621 -2.10269
lowerneck 2.18245 -2.00001 -7.46725
upperneck 27.1548 -2.40848 5.06193
head 8.19922 -1.02792 2.90979
rclavicle 5.40135e-015 -2.84262e-014
rhumerus -50.888 5.58757 -98.2632
rradius 80.1243
rwrist -16.158
rhand -7.68039 57.5241
rfingers 7.12502
rthumb 18.2163 28.3571
lclavicle 5.40135e-015 -2.84262e-014
lhumerus 3.14755 32.7976 33.08
lradius 78.0483
lwrist 19.5744
lhand 5.00971 55.8165
lfingers 7.12502
lthumb 30.3792 1163.33
rfemur -29.7192 5.85902 13.0654
rtibia 33.4996
rfoot -16.7835 -0.577705
rtoes -37.7585
lfemur -11.9621 -6.559 -28.5198
ltibia 31.0198
lfoot -22.0017 -0.39027
ltoes -21.4925
1166
root -4.8176 16.0415 3.95253 -702.519 -1011.22 376.683
lowerback 6.64592 4.07726 -3.54241
upperback -2.2404 4.98748 -3.29721
thorax -6.07363 2.54473 -2.05672
lowerneck 2.38458 -2.1205 -7.46893
upperneck 27.1334 -2.62629 5.28701
head 8.1723 -1.10797 2.97481
rclavicle 3.94223e-014 2.38542e-015
rhumerus -51.0292 5.46616 -97.8874
rradius 80.2233
rwrist -16.1368
rhand -7.71583 57.5568
rfingers 7.12502
rthumb 18.1823 28.3866
lclavicle 3.94223e-014 2.38542e-015
lhumerus 3.08248 33.2296 32.989
lradius 77.124
lwrist 18.9253
lhand 5.01521 55.3112
lfingers 7.12502
lthumb 30.3845 1162.83
rfemur -28.1527 4.65835 14.3051
rtibia 32.7157
rfoot -16.5612 0.467069
rtoes -33.4515
lfemur -11.4719 -8.47826 -27.7243
ltibia 31.9519
lfoot -22.8814 0.783943
ltoes -22.1704
1167
root -4.67693 16.0214 4.07635 -704.411 -1010.18 374.674
lowerback 6.33664 4.02323 -2.90626
upperback -2.39996 4.99292 -2.99016
thorax -6.03587 2.52821 -2.07047
lowerneck 2.65213 -2.2065 -7.52857
upperneck 27.0204 -2.81435 5.57816
head 8.10189 -1.17632 3.073
rclavicle 2.12032e-014 -1.59028e-014
rhumerus -51.1533 5.39848 -97.5665
rradius 80.2953
rwrist -16.0439
rhand -7.8423 57.3991
rfingers 7.12502
rthumb 18.0606 28.2176
lclavicle 2.12032e-014 -1.59028e-014
lhumerus 2.95878 33.6886 32.8104
lradius 76.2302
lwrist 18.2456
lhand 5.06356 54.8822
lfingers 7.12502
lthumb 30.4306 1162.39
rfemur -26.6956 3.45331 15.7502
rtibia 32.2181
rfoot -17.4039 1.00044
rtoes -29.8253
lfemur -11.3403 -10.4116 -26.6838
ltibia 33.1779
lfoot -23.6747 2.02763
ltoes -22.9591
1168
root -4.53905 16.0019 4.19387 -707.41 -1009.21 371.439
lowerback 5.98085 4.00331 -1.949
upperback -2.56237 5.07348 -2.57825
thorax -5.95416 2.53801 -2.15749
lowerneck 2.82349 -2.31147 -7.5353
upperneck 26.9286 -2.99719 5.73507
head 8.05458 -1.24855 3.11638
rclavicle -3.87972e-014 -1.55052e-014
rhumerus -51.1164 5.43265 -97.2297
rradius 80.3239
rwrist -15.8342
rhand -8.31757 57.1991
rfingers 7.12502
rthumb 17.6033 27.976
lclavicle -3.87972e-014 -1.55052e-014
lhumerus 2.71295 34.0134 32.4015
lradius 75.3572
lwrist 17.6406
lhand 5.61504 54.4067
lfingers 7.12502
lthumb 30.9564 1161.82
rfemur -25.5966 2.11154 17.5364
rtibia 31.8966
rfoot -17.6954 1.26868
rtoes -28.2282
lfemur -11.4845 -12.0326 -25.3152
ltibia 34.7102
lfoot -24.3742 3.20227
ltoes -23.738
1169
root -4.40291 15.9797 4.3039 -711.113 -1008.46 367.473
lowerback 5.59603 3.98621 -0.859687
upperback -2.6508 5.16736 -2.1012
thorax -5.77105 2.55173 -2.24507
lowerneck 2.8319 -2.37979 -7.58035
upperneck 26.7992 -3.10305 5.78818
head 8.0177 -1.29875 3.13336
rclavicle 1.02374e-014 7.95139e-016
rhumerus -50.8784 5.70508 -96.905
rradius 80.3499
rwrist -15.5493
rhand -9.20716 57.1206
rfingers 7.12502
rthumb 16.747 27.8229
lclavicle 1.02374e-014 7.95139e-016
lhumerus 2.39171 34.6712 32.0481
lradius 74.5265
lwrist 16.3568
lhand 7.24094 53.8981
lfingers 7.12502
lthumb 32.505 1161
rfemur -24.8421 0.429027 19.4683
rtibia 31.6284
rfoot -17.7981 1.85858
rtoes -27.468
lfemur -11.795 -13.3142 -23.8607
ltibia 36.5396
lfoot -25.1253 4.33231
ltoes -23.8486
1170
root -4.26887 15.9503 4.40969 -715.542 -1008.03 362.872
lowerback 5.38628 4.0292 0.318835
upperback -2.71671 5.34095 -1.59251
thorax -5.65574 2.60239 -2.37089
lowerneck 2.83631 -2.39508 -7.64724
upperneck 26.5653 -3.14274 5.85917
head 7.94113 -1.32069 3.16183
rclavicle 3.42593e-014 1.98785e-016
rhumerus -50.5102 5.90062 -96.4007
rradius 80.3199
rwrist -15.7035
rhand -9.09929 57.0215
rfingers 7.12502
rthumb 16.8509 27.7326
lclavicle 3.42593e-014 1.98785e-016
lhumerus 1.99959 35.3995 31.6536
lradius 73.8006
lwrist 14.9018
lhand 8.72298 53.4469
lfingers 7.12502
lthumb 33.9141 1160.25
rfemur -24.0558 -1.41881 21.496
rtibia 31.3493
rfoot -17.8682 3.13855
rtoes -27.0729
lfemur -12.0621 -14.1953 -22.3837
ltibia 38.6293
lfoot -25.9831 5.46761
ltoes -23.5857
1171
root -4.13599 15.9207 4.50816 -720.343 -1007.94 358.056
lowerback 5.43226 4.15897 1.59214
upperback -2.78762 5.63692 -1.10971
thorax -5.67216 2.7079 -2.60854
lowerneck 2.89703 -2.38608 -7.62804
upperneck 26.274 -3.16139 5.95916
head 7.83178 -1.32267 3.18582
rclavicle -2.7805e-014 -7.55382e-015
rhumerus -50.1765 6.03615 -95.8923
rradius 80.1672
rwrist -15.8673
rhand -8.98621 57.1181
rfingers 7.12502
rthumb 16.9597 27.8385
lclavicle -2.7805e-014 -7.55382e-015
lhumerus 1.4701 35.7831 31.0434
lradius 73.2862
lwrist 14.2977
lhand 8.32989 53.1917
lfingers 7.12502
lthumb 33.5406 1160.08
rfemur -23.07 -3.41481 23.5085
rtibia 31.0371
rfoot -17.8727 5.19019
rtoes -26.2966
lfemur -12.2226 -14.5713 -20.978
ltibia 40.9629
lfoot -26.8264 6.53644
ltoes -23.6833
1172
root -4.004 15.8949 4.60128 -724.503 -1008.07 354.012
lowerback 5.61035 4.30787 2.69929
upperback -2.82725 5.94958 -0.70463
thorax -5.73273 2.82548 -2.84532
lowerneck 2.97519 -2.35887 -7.64994
upperneck 25.9325 -3.16965 6.12665
head 7.7032 -1.31978 3.23941
rclavicle 1.99406e-014 -2.38542e-015
rhumerus -49.8982 6.40314 -95.5813
rradius 80.0579
rwrist -15.7136
rhand -9.87092 57.4109
rfingers 7.12502
rthumb 16.1079 28.0603
lclavicle 1.99406e-014 -2.38542e-015
lhumerus 0.824819 36.1014 30.2821
lradius 72.9376
lwrist 13.9946
lhand 7.1845 53.2185
lfingers 7.12502
lthumb 32.4513 1160.33
rfemur -21.994 -5.71717 25.2384
rtibia 30.6571
rfoot -17.881 7.80811
rtoes -25.6183
lfemur -12.4457 -14.0268 -19.8187
ltibia 43.5254
lfoot -27.2403 7.27702
ltoes -25.4872
1173
root -3.87454 15.8735 4.69498 -727.667 -1008.24 351.092
lowerback 5.87779 4.47758 3.41282
upperback -2.80445 6.26129 -0.382242
thorax -5.80418 2.95582 -2.95557
lowerneck 3.074 -2.35796 -7.7416
upperneck 25.5514 -3.23218 6.38842
head 7.56458 -1.34321 3.33296
rclavicle -4.70001e-014 -3.18055e-015
rhumerus -49.5191 6.77797 -95.2747
rradius 80.0081
rwrist -15.6139
rhand -10.9471 57.6754
rfingers 7.12502
rthumb 15.0714 28.2441
lclavicle -4.70001e-014 -3.18055e-015
lhumerus 0.569028 36.7735 29.843
lradius 72.5511
lwrist 13.0911
lhand 6.90308 53.2737
lfingers 7.12502
lthumb 32.1834 1160.44
rfemur -20.8127 -8.05581 26.525
rtibia 30.177
rfoot -18.1789 10.624
rtoes -25.3603
lfemur -12.8406 -12.4049 -18.8552
ltibia 46.3062
lfoot -26.9234 7.30622
ltoes -29.0004
1174
root -3.74576 15.8661 4.78849 -729.618 -1008.3 349.486
lowerback 6.1106 4.66197 3.63701
upperback -2.68786 6.54504 -0.153231
thorax -5.797 3.09258 -2.88356
lowerneck 3.12353 -2.40535 -7.82247
upperneck 25.2414 -3.36091 6.6759
head 7.46464 -1.39386 3.43062
rclavicle -4.16702e-014 0
rhumerus -48.9426 6.95376 -94.8427
rradius 79.9607
rwrist -15.5356
rhand -11.8076 57.7344
rfingers 7.12502
rthumb 14.2424 28.2427
lclavicle -4.16702e-014 0
lhumerus 0.694507 37.6301 29.7603
lradius 72.2215
lwrist 12.0157
lhand 6.61547 53.355
lfingers 7.12502
lthumb 31.9096 1160.58
rfemur -19.4644 -9.95816 27.1908
rtibia 29.54
rfoot -18.5635 13.163
rtoes -24.9225
lfemur -13.48 -10.5868 -18.1608
ltibia 49.3142
lfoot -25.8225 6.6148
ltoes -31.3935
